<?xml version="1.0" standalone="no"?>
<!DOCTYPE svg PUBLIC "-//W3C//DTD SVG 20010904//EN"
 "http://www.w3.org/TR/2001/REC-SVG-20010904/DTD/svg10.dtd">
<svg version="1.0" xmlns="http://www.w3.org/2000/svg"
 width="512.000000pt" height="512.000000pt" viewBox="0 0 512.000000 512.000000"
 preserveAspectRatio="xMidYMid meet">
<metadata>
Created by potrace 1.11, written by Peter Selinger 2001-2013
</metadata>
<g transform="translate(0.000000,512.000000) scale(0.100000,-0.100000)"
fill="#000000" stroke="none">
<path d="M452 5068 c25 -29 143 -170 264 -314 120 -143 385 -457 587 -698
l369 -438 -17 -81 c-11 -51 -19 -150 -22 -265 -4 -129 -9 -182 -17 -179 -16 6
-1131 638 -1191 675 -84 52 -414 242 -420 242 -3 0 -5 -263 -5 -585 0 -540 1
-585 17 -585 9 0 147 -13 307 -30 160 -16 354 -34 431 -39 77 -5 314 -31 526
-57 l386 -47 13 -56 c7 -31 28 -98 47 -149 19 -51 33 -96 30 -98 -4 -4 -750
-182 -1534 -367 l-223 -52 0 -643 c0 -512 3 -642 12 -635 44 26 1618 1199
1761 1311 60 46 112 81 116 76 4 -5 20 -37 34 -72 29 -68 34 -141 20 -286 -5
-54 -10 -70 -24 -73 -12 -4 -20 -22 -28 -64 -7 -41 -22 -75 -48 -113 -21 -29
-87 -123 -146 -207 -120 -170 -827 -1225 -827 -1233 0 -4 274 -6 609 -6 l609
0 27 148 c57 306 72 383 77 387 2 3 20 0 39 -5 51 -15 156 -12 188 5 28 14 44
42 57 98 4 17 16 32 30 38 46 17 102 136 154 324 15 56 49 457 51 595 l1 115
83 -475 c108 -613 142 -820 149 -900 3 -36 13 -125 23 -198 l16 -132 618 0
618 0 -148 228 c-209 322 -324 493 -402 597 -37 50 -234 354 -439 677 l-371
588 48 61 c26 34 54 68 60 77 11 13 20 10 70 -30 60 -46 917 -698 1653 -1257
l425 -323 3 643 c1 353 -1 646 -5 650 -9 8 -1135 287 -1408 349 -239 54 -572
143 -575 153 -1 5 34 57 79 116 l82 108 217 22 c119 11 327 30 462 42 352 29
1141 106 1146 112 2 2 3 260 2 574 l-3 570 -785 -433 c-432 -237 -787 -430
-788 -429 -2 2 5 39 15 82 13 59 18 117 18 238 0 140 -3 167 -21 212 l-22 52
150 173 c83 95 158 178 168 185 27 19 370 397 660 728 145 165 274 312 288
328 l26 27 -720 0 -721 0 -61 -202 c-34 -112 -73 -250 -87 -308 -14 -58 -47
-169 -73 -248 -46 -140 -47 -143 -72 -137 -155 40 -362 65 -538 65 -218 0
-252 -12 -412 -139 l-64 -52 -42 163 c-24 90 -89 318 -146 508 l-103 345 -689
3 -689 2 45 -52z m2453 -857 c196 -34 245 -52 316 -119 96 -88 178 -224 272
-452 30 -72 31 -81 32 -220 0 -159 -14 -242 -67 -410 -20 -64 -45 -116 -76
-160 -102 -145 -307 -413 -417 -545 -242 -292 -305 -426 -305 -656 l0 -80 -42
6 c-24 3 -160 16 -303 30 -143 14 -274 27 -291 30 l-30 5 4 143 4 142 -77 185
c-190 454 -212 529 -236 784 -15 162 -6 534 15 627 29 131 116 258 297 434
108 105 256 228 307 254 46 24 111 30 292 26 128 -2 222 -10 305 -24z m-695
-2656 c199 -14 439 -41 447 -49 12 -12 -31 -421 -54 -516 -41 -171 -93 -280
-133 -280 -22 0 -34 -20 -45 -70 -11 -55 -30 -70 -91 -70 -83 0 -152 19 -188
50 -27 25 -30 31 -18 49 27 45 15 73 -68 171 -45 52 -95 124 -113 160 l-32 65
0 165 c0 91 6 204 14 253 l13 87 32 0 c17 0 123 -7 236 -15z"/>
</g>
</svg>
